<svg xmlns="http://www.w3.org/2000/svg" width="146" height="94" viewBox="0 0 146 94">
    <defs>
        <filter id="9rkufadgya">
            <feColorMatrix in="SourceGraphic" values="0 0 0 0 0.552941 0 0 0 0 0.000000 0 0 0 0 1.000000 0 0 0 1.000000 0"/>
        </filter>
        <filter id="yyua6ofmgb" width="145.3%" height="194.2%" x="-23.1%" y="-47.1%" filterUnits="objectBoundingBox">
            <feOffset dy="3" in="SourceAlpha" result="shadowOffsetOuter1"/>
            <feGaussianBlur in="shadowOffsetOuter1" result="shadowBlurOuter1" stdDeviation="4"/>
            <feColorMatrix in="shadowBlurOuter1" result="shadowMatrixOuter1" values="0 0 0 0 0.397984601 0 0 0 0 0.397984601 0 0 0 0 0.397984601 0 0 0 0.5 0"/>
            <feMerge>
                <feMergeNode in="shadowMatrixOuter1"/>
                <feMergeNode in="SourceGraphic"/>
            </feMerge>
        </filter>
        <filter id="vgfz7a1f3c">
            <feColorMatrix in="SourceGraphic" values="0 0 0 0 1.000000 0 0 0 0 1.000000 0 0 0 0 1.000000 0 0 0 1.000000 0"/>
        </filter>
        <filter id="w2l9g7jv4d" width="145.3%" height="194.2%" x="-23.1%" y="-47.1%" filterUnits="objectBoundingBox">
            <feOffset dy="3" in="SourceAlpha" result="shadowOffsetOuter1"/>
            <feGaussianBlur in="shadowOffsetOuter1" result="shadowBlurOuter1" stdDeviation="4"/>
            <feColorMatrix in="shadowBlurOuter1" result="shadowMatrixOuter1" values="0 0 0 0 0.397984601 0 0 0 0 0.397984601 0 0 0 0 0.397984601 0 0 0 0.5 0"/>
            <feMerge>
                <feMergeNode in="shadowMatrixOuter1"/>
                <feMergeNode in="SourceGraphic"/>
            </feMerge>
        </filter>
    </defs>
    <g fill="none" fill-rule="evenodd">
        <g>
            <g>
                <g>
                    <g filter="url(#9rkufadgya)" opacity=".596" transform="translate(-93 -112) translate(111 131) translate(1)">
                        <g stroke="#1D1D1B" stroke-width="5.5" filter="url(#yyua6ofmgb)" transform="translate(0 4)">
                            <g>
                                <path d="M53.496 0c14.633 0 26.496 11.566 26.496 25.834 0 14.267-11.863 25.833-26.496 25.833-4.93 0-9.547-1.313-13.5-3.6-3.954 2.287-8.57 3.6-13.5 3.6C11.863 51.667 0 40.1 0 25.834 0 11.566 11.863 0 26.496 0c4.93 0 9.546 1.313 13.5 3.6 3.953-2.287 8.57-3.6 13.5-3.6z" transform="translate(14.14)"/>
                                <path d="M52.992 25.834c0 14.267-11.863 25.833-26.496 25.833S0 40.1 0 25.834C0 11.566 11.863 0 26.496 0s26.496 11.566 26.496 25.834z" transform="translate(14.14)"/>
                            </g>
                            <path stroke-linecap="round" stroke-linejoin="round" d="M0 42.365c5.338-1.904 5.322-1.896 12.96-4.719M68.25 17.25s20.31-7.43 35.794-13.541"/>
                        </g>
                    </g>
                    <g filter="url(#vgfz7a1f3c)" transform="translate(-93 -112) translate(111 131) translate(1)">
                        <g stroke="#1D1D1B" stroke-width="5.5" filter="url(#w2l9g7jv4d)" transform="translate(3.5)">
                            <g>
                                <path d="M53.496 0c14.633 0 26.496 11.566 26.496 25.834 0 14.267-11.863 25.833-26.496 25.833-4.93 0-9.547-1.313-13.5-3.6-3.954 2.287-8.57 3.6-13.5 3.6C11.863 51.667 0 40.1 0 25.834 0 11.566 11.863 0 26.496 0c4.93 0 9.546 1.313 13.5 3.6 3.953-2.287 8.57-3.6 13.5-3.6z" transform="translate(14.14)"/>
                                <path d="M52.992 25.834c0 14.267-11.863 25.833-26.496 25.833S0 40.1 0 25.834C0 11.566 11.863 0 26.496 0s26.496 11.566 26.496 25.834z" transform="translate(14.14)"/>
                            </g>
                            <path stroke-linecap="round" stroke-linejoin="round" d="M0 42.365c5.338-1.904 5.322-1.896 12.96-4.719M68.25 17.25s20.31-7.43 35.794-13.541"/>
                        </g>
                    </g>
                </g>
            </g>
        </g>
    </g>
</svg>
